<svg width="50" height="37" viewBox="0 0 50 37" fill="none" xmlns="http://www.w3.org/2000/svg">
<path opacity="0.5" d="M44.9905 20.7896V25.1917C44.9905 30.8569 40.6516 35.4635 35.3218 35.4635C33.1755 35.4589 31.0987 34.7114 29.4521 33.3508C29.4132 33.3183 29.3719 33.2859 29.3338 33.2504C30.6211 31.9627 31.9845 30.7515 33.4169 29.6232C33.541 29.6853 33.6684 29.7407 33.7986 29.7892C34.2846 29.973 34.8006 30.0671 35.321 30.0669C37.8481 30.0669 39.908 27.8787 39.908 25.1932V24.665L42.0083 23.0654L44.9905 20.7896ZM15.575 29.5184C15.0282 29.7541 14.4385 29.8776 13.8419 29.8813C11.311 29.8813 9.25188 27.6931 9.25188 25.0084V24.6952L7.15154 23.0955L4.16938 20.8221V25.0068C4.16938 30.6721 8.50901 35.2787 13.8419 35.2787C15.9289 35.2737 17.9518 34.5654 19.5765 33.2708C19.6177 33.2376 19.662 33.2021 19.7032 33.1674C18.4072 31.8654 17.0283 30.6466 15.575 29.5184ZM39.5919 5.20721C39.5919 5.20721 36.7067 7.77271 34.6827 7.63161C32.6587 7.4905 30.2087 4.49415 30.2087 4.49415C30.2087 4.49415 26.9486 7.59161 24.5788 7.63161C22.1356 7.67311 18.9489 4.49415 18.9489 4.49415C18.9489 4.49415 16.4958 7.48975 14.4749 7.63161C12.4539 7.77346 9.56567 5.20721 9.56567 5.20721L7.54473 8.34316C7.54473 8.34316 10.8873 11.2331 12.6876 15.7718L14.5405 17.1813C17.4184 19.3617 20.9419 20.5464 24.5681 20.5527H24.5788C28.2091 20.559 31.7378 19.3677 34.6056 17.1677L36.4861 15.7341C38.2925 11.2165 41.6151 8.34316 41.6151 8.34316L39.5919 5.20721ZM49.1438 8.08057L49.1194 8.06095L49.0942 8.08057L43.0955 12.6517L41.0547 14.2053L35.7027 18.2799L35.5623 18.3863C34.3702 19.2971 33.0675 20.0568 31.6845 20.6478C31.4555 20.7428 31.2333 20.8356 31.005 20.9202C31.0033 20.9196 31.0014 20.9196 30.9997 20.9202C30.847 20.9775 30.6996 21.0318 30.5477 21.0839C30.5297 21.0912 30.5114 21.0975 30.4927 21.1028C30.3576 21.1488 30.2202 21.1948 30.0827 21.2363C29.9453 21.2778 29.8048 21.3231 29.6644 21.3638C28.5939 21.6778 27.4961 21.8918 26.3852 22.0029C26.192 22.0226 26.0035 22.0384 25.8126 22.0497L25.5591 22.0656C25.24 22.0822 24.9201 22.0927 24.6009 22.0927H24.5628C24.3917 22.0927 24.2238 22.0927 24.0528 22.0852C24.0115 22.0852 23.9764 22.0852 23.9321 22.0852C23.8 22.0799 23.6649 22.0746 23.5298 22.0663C23.5137 22.0663 23.4939 22.0663 23.4779 22.0663C23.4145 22.0663 23.3511 22.058 23.2877 22.0527C23.1557 22.0444 23.0236 22.0339 22.8915 22.0233C22.7258 22.0067 22.5609 21.9901 22.3929 21.9682C22.2937 21.9577 22.1921 21.9441 22.0875 21.9305C22.0356 21.9252 21.983 21.9169 21.931 21.9086C21.8455 21.895 21.7577 21.8845 21.6722 21.8679C21.6279 21.8626 21.5837 21.8543 21.5401 21.846C21.4017 21.8244 21.264 21.7992 21.1271 21.7705C20.9507 21.7373 20.7744 21.6996 20.598 21.6619C20.4659 21.6317 20.3315 21.6015 20.1964 21.5661C20.1025 21.5442 20.0093 21.52 19.9124 21.4906C19.7253 21.4416 19.536 21.3902 19.3482 21.3329C19.2107 21.2921 19.0756 21.2514 18.9412 21.2046C18.7343 21.1397 18.5305 21.0688 18.3305 20.9926C18.1655 20.9352 18.0029 20.8726 17.8403 20.8077C17.7006 20.7534 17.5601 20.696 17.4227 20.6334C17.3311 20.598 17.2433 20.558 17.1555 20.5195C17.031 20.4644 16.9104 20.4078 16.789 20.3505C16.6981 20.3067 16.6073 20.2637 16.5164 20.2169C16.2332 20.0781 15.9522 19.9317 15.6766 19.7762C15.5002 19.6759 15.3246 19.5725 15.1483 19.4661C14.936 19.3386 14.7238 19.202 14.5153 19.0632C14.3069 18.9243 14.0962 18.778 13.8923 18.6308L13.5869 18.4044L13.4663 18.3116L8.10818 14.237L6.02693 12.6524L0 8.0602V12.3982C0.000900149 12.6563 0.0156817 12.9142 0.044282 13.1708C0.0603151 13.2983 0.0794022 13.4266 0.101543 13.5481C0.145217 13.7999 0.203336 14.0491 0.275617 14.2944C0.313791 14.4166 0.351965 14.5358 0.396247 14.6558C0.440529 14.7758 0.484811 14.8957 0.534438 15.0165C0.584064 15.1372 0.636744 15.2474 0.694006 15.3621C1.1519 16.283 1.81804 17.0875 2.64089 17.7133L4.16785 18.8745L8.10513 21.8762L9.25035 22.7492L14.4703 26.7272L16.1721 28.0251C16.4225 28.216 16.676 28.4122 16.9211 28.6076C16.9211 28.6076 16.9211 28.6076 16.9264 28.6076C17.1219 28.7623 17.3143 28.9177 17.5044 29.0784C17.6342 29.1818 17.7609 29.2875 17.8861 29.3969C18.2388 29.6901 18.586 29.992 18.9275 30.3023C19.0458 30.4057 19.1611 30.5091 19.2772 30.6177L19.5161 30.8381C19.6406 30.9528 19.7643 31.0644 19.888 31.1867C20.2048 31.4885 20.5186 31.7903 20.824 32.1005C20.9729 32.2476 21.1187 32.3947 21.2592 32.5419C21.4409 32.7267 21.6195 32.9146 21.7936 33.1018L24.5551 36.0491L27.0105 33.4149C27.2395 33.1704 27.4686 32.9305 27.7022 32.6913C27.8725 32.514 28.0458 32.3404 28.2221 32.1631C28.3405 32.0408 28.4649 31.9179 28.5886 31.7986C28.7535 31.6379 28.9192 31.4772 29.0841 31.3195C29.7857 30.6532 30.5072 30.005 31.2509 29.3825C31.3639 29.2867 31.4799 29.1886 31.5952 29.0935C31.7685 28.9524 31.9388 28.8136 32.1128 28.6748C32.1976 28.6068 32.2831 28.5359 32.3686 28.4703C32.6053 28.2801 32.845 28.093 33.087 27.9104L34.4857 26.8434L39.9065 22.716L41.0517 21.84L44.9859 18.8413L46.5129 17.6763C47.3355 17.05 48.0016 16.2455 48.4598 15.3246C48.9181 14.4037 49.1563 13.3912 49.1561 12.365V8.0934L49.1438 8.08057ZM24.5841 5.72106C25.1563 5.71972 25.7153 5.55079 26.1904 5.23562C26.6654 4.92046 27.0354 4.47319 27.2533 3.95034C27.4713 3.42748 27.5276 2.8525 27.4151 2.29804C27.3026 1.74357 27.0263 1.23451 26.6212 0.835169C26.2161 0.435826 25.7003 0.164119 25.1389 0.0543794C24.5776 -0.0553605 23.996 0.00179045 23.4675 0.218611C22.9391 0.435432 22.4875 0.802194 22.1698 1.27256C21.8522 1.74292 21.6828 2.29578 21.6829 2.86128C21.683 3.23744 21.7582 3.60989 21.9041 3.9573C22.05 4.30471 22.2639 4.62027 22.5333 4.8859C22.8028 5.15154 23.1227 5.36203 23.4746 5.50534C23.8265 5.64865 24.2035 5.72195 24.5841 5.72106Z" fill="white"/>
</svg>
