<svg width="64" height="64" viewBox="0 0 64 64" fill="none" xmlns="http://www.w3.org/2000/svg">
<g filter="url(#filter0_i)">
<rect width="64" height="64" rx="12" fill="#0066FF"/>
<path d="M30.32 40.5723C30.4595 40.433 30.5701 40.2676 30.6456 40.0855C30.7211 39.9034 30.7599 39.7082 30.7599 39.511C30.7599 39.3139 30.7211 39.1187 30.6456 38.9366C30.5701 38.7545 30.4595 38.5891 30.32 38.4498L25.382 33.5103L41 33.4998C41.3978 33.4998 41.7794 33.3418 42.0607 33.0605C42.342 32.7792 42.5 32.3976 42.5 31.9998C42.5 31.602 42.342 31.2204 42.0607 30.9391C41.7794 30.6578 41.3978 30.4998 41 30.4998L25.379 30.5103L30.32 25.5723C30.6015 25.291 30.7597 24.9095 30.7598 24.5116C30.7599 24.1137 30.602 23.732 30.3207 23.4505C30.0395 23.1691 29.6579 23.0109 29.26 23.0107C28.8621 23.0106 28.4805 23.1685 28.199 23.4498L22.82 28.8288C22.4021 29.2467 22.0705 29.7428 21.8443 30.2888C21.6181 30.8348 21.5017 31.42 21.5017 32.011C21.5017 32.6021 21.6181 33.1873 21.8443 33.7333C22.0705 34.2793 22.4021 34.7754 22.82 35.1933L28.199 40.5723C28.4803 40.8535 28.8618 41.0115 29.2595 41.0115C29.6572 41.0115 30.0387 40.8535 30.32 40.5723Z" fill="white"/>
</g>
<defs>
<filter id="filter0_i" x="0" y="-15" width="64" height="79" filterUnits="userSpaceOnUse" color-interpolation-filters="sRGB">
<feFlood flood-opacity="0" result="BackgroundImageFix"/>
<feBlend mode="normal" in="SourceGraphic" in2="BackgroundImageFix" result="shape"/>
<feColorMatrix in="SourceAlpha" type="matrix" values="0 0 0 0 0 0 0 0 0 0 0 0 0 0 0 0 0 0 127 0" result="hardAlpha"/>
<feOffset dy="-15"/>
<feGaussianBlur stdDeviation="10"/>
<feComposite in2="hardAlpha" operator="arithmetic" k2="-1" k3="1"/>
<feColorMatrix type="matrix" values="0 0 0 0 0.791667 0 0 0 0 0.875 0 0 0 0 1 0 0 0 0.15 0"/>
<feBlend mode="normal" in2="shape" result="effect1_innerShadow"/>
</filter>
</defs>
</svg>
