<svg width="18" height="18" viewBox="0 0 18 18" fill="none" xmlns="http://www.w3.org/2000/svg">
<path d="M17.7801 0.219834C17.6394 0.0792307 17.4487 0.000244141 17.2498 0.000244141C17.051 0.000244141 16.8602 0.0792307 16.7196 0.219834L8.99984 7.93958L1.28009 0.219834C1.13944 0.0792307 0.948713 0.000244141 0.74984 0.000244141C0.550967 0.000244141 0.360236 0.0792307 0.21959 0.219834C0.0789866 0.36048 0 0.551211 0 0.750084C0 0.948957 0.0789866 1.13969 0.21959 1.28033L7.93934 9.00008L0.21959 16.7198C0.0789866 16.8605 0 17.0512 0 17.2501C0 17.449 0.0789866 17.6397 0.21959 17.7803C0.360236 17.9209 0.550967 17.9999 0.74984 17.9999C0.948713 17.9999 1.13944 17.9209 1.28009 17.7803L8.99984 10.0606L16.7196 17.7803C16.8602 17.9209 17.051 17.9999 17.2498 17.9999C17.4487 17.9999 17.6394 17.9209 17.7801 17.7803C17.9207 17.6397 17.9997 17.449 17.9997 17.2501C17.9997 17.0512 17.9207 16.8605 17.7801 16.7198L10.0603 9.00008L17.7801 1.28033C17.9207 1.13969 17.9997 0.948957 17.9997 0.750084C17.9997 0.551211 17.9207 0.36048 17.7801 0.219834Z" fill="#F32A2A"/>
</svg>
