<svg width="36" height="36" viewBox="0 0 36 36" fill="none" xmlns="http://www.w3.org/2000/svg">
<path d="M19.68 26.5723C19.5405 26.433 19.4299 26.2676 19.3544 26.0855C19.2789 25.9034 19.2401 25.7082 19.2401 25.511C19.2401 25.3139 19.2789 25.1187 19.3544 24.9366C19.4299 24.7545 19.5405 24.5891 19.68 24.4498L24.618 19.5103L9 19.4998C8.60218 19.4998 8.22065 19.3418 7.93934 19.0605C7.65804 18.7792 7.5 18.3976 7.5 17.9998C7.5 17.602 7.65804 17.2204 7.93934 16.9391C8.22065 16.6578 8.60218 16.4998 9 16.4998L24.621 16.5103L19.68 11.5723C19.3985 11.291 19.2403 10.9095 19.2402 10.5116C19.2401 10.1137 19.398 9.73201 19.6793 9.45055C19.9605 9.16908 20.3421 9.01088 20.74 9.01074C21.1379 9.0106 21.5195 9.16853 21.801 9.4498L27.18 14.8288C27.5979 15.2467 27.9295 15.7428 28.1557 16.2888C28.3819 16.8348 28.4983 17.42 28.4983 18.011C28.4983 18.6021 28.3819 19.1873 28.1557 19.7333C27.9295 20.2793 27.5979 20.7754 27.18 21.1933L21.801 26.5723C21.5197 26.8535 21.1382 27.0115 20.7405 27.0115C20.3428 27.0115 19.9613 26.8535 19.68 26.5723Z" fill="white"/>
</svg>
