<svg width="100" height="100" viewBox="0 0 100 100" fill="none" xmlns="http://www.w3.org/2000/svg">
<path d="M72.1024 34.1347C73.6282 35.6606 73.6282 38.134 72.1024 39.6591L45.8969 65.8653C44.371 67.3904 41.8983 67.3904 40.3725 65.8653L27.8976 53.3897C26.3718 51.8646 26.3718 49.3912 27.8976 47.8661C29.4228 46.3402 31.8962 46.3402 33.4213 47.8661L43.1343 57.579L66.5779 34.1347C68.1038 32.6096 70.5772 32.6096 72.1024 34.1347ZM100 50C100 77.6375 77.6337 100 50 100C22.3625 100 0 77.6337 0 50C0 22.3625 22.3663 0 50 0C77.6375 0 100 22.3663 100 50ZM92.1875 50C92.1875 26.6808 73.3162 7.8125 50 7.8125C26.6808 7.8125 7.8125 26.6838 7.8125 50C7.8125 73.3192 26.6838 92.1875 50 92.1875C73.3192 92.1875 92.1875 73.3162 92.1875 50Z" fill="#0066FF"/>
</svg>
