<svg width="16" height="18" viewBox="0 0 16 18" fill="none" xmlns="http://www.w3.org/2000/svg">
<path d="M11.9375 0C9.76632 0 8 1.76632 8 3.9375V7.875H1.25C0.628719 7.875 0.125 8.37872 0.125 9V16.875C0.125 17.4963 0.628719 18 1.25 18H11.375C11.9963 18 12.5 17.4963 12.5 16.875V9C12.5 8.37872 11.9963 7.875 11.375 7.875H10.25V3.9375C10.25 3.00695 11.0069 2.25 11.9375 2.25C12.8681 2.25 13.625 3.00695 13.625 3.9375V6.75C13.625 7.37128 14.1287 7.875 14.75 7.875C15.3713 7.875 15.875 7.37128 15.875 6.75V3.9375C15.875 1.76632 14.1087 0 11.9375 0ZM6.875 13.9592V15.1875C6.875 15.4981 6.62314 15.75 6.3125 15.75C6.00186 15.75 5.75 15.4981 5.75 15.1875V13.9592C5.09602 13.7267 4.625 13.1086 4.625 12.375C4.625 11.4429 5.38044 10.6875 6.3125 10.6875C7.24456 10.6875 8 11.4429 8 12.375C8 13.1086 7.52898 13.7267 6.875 13.9592Z" fill="#0066FF"/>
</svg>
